<svg width="32" height="28" viewBox="0 0 32 28" fill="none" xmlns="http://www.w3.org/2000/svg">
<g clip-path="url(#clip0_286_7429)">
<rect y="0.547363" width="32" height="26.9056" rx="4" fill="#EAEAEC"/>
<path d="M27.2638 5.39224C25.1979 4.97423 21.867 4.40891 20.9364 6.35357C18.0924 11.2797 16.4595 16.4354 15.2305 18.6475C15.3596 18.7221 21.0244 22.0088 21.4251 22.2032C22.6986 22.8212 24.8248 22.5431 25.7306 20.9095C28.2433 16.3777 27.6046 17.5575 30.2744 12.9334C31.9997 9.94515 29.8426 5.91396 27.2638 5.39224Z" fill="#EA4335"/>
<path d="M9.39045 25.3909C8.0033 23.804 6.98575 20.6291 8.20463 18.851C11.7654 12.6835 14.6158 8.94993 16.8576 5.20752C18.0463 5.89387 22.8092 8.59556 23.1264 8.87392C24.1905 9.80741 25.0721 11.5911 24.1102 13.1923C21.4418 17.6344 20.347 19.6446 17.6349 24.3422C15.9092 27.3313 11.1234 27.3734 9.39045 25.3909Z" fill="#FDBD00"/>
<path d="M22.1629 2.24819C19.3879 0.626663 17.9616 0.83918 16.4693 1.07851C15.1126 1.41765 13.2782 2.40358 12.5049 3.67022C10.5541 6.8654 8.70637 10.0271 6.31273 14.3117C5.57549 15.6313 6.12272 17.2526 6.80309 17.896C7.26417 18.3322 10.6568 20.204 11.2827 20.4731C12.1682 20.8538 13.4946 20.5889 14.2947 19.7654C14.5156 19.5379 19.5767 10.8448 21.002 8.28079C21.6037 7.19881 22.1456 6.60004 23.0452 6.02288C24.7832 5.11086 26.1402 4.99322 28.2186 5.75323C28.2186 5.75323 23.695 3.13119 22.1629 2.24819Z" fill="#2DA94F"/>
<path d="M4.30779 22.6498C1.51592 21.0574 0.986771 19.716 0.447865 18.3038C0.0633045 16.9595 -7.31647e-05 14.8778 0.710225 13.5746C2.50211 10.2878 2.48922 10.2711 5.00299 6.05578C5.77719 4.75752 7.45494 4.42085 8.35238 4.68828C8.96064 4.86944 12.2779 6.87162 12.824 7.27922C13.5965 7.85573 14.0302 9.13682 13.7171 10.2416C13.6306 10.5466 10.4595 16.1119 8.95179 18.6284C8.31542 19.6903 8.06789 20.4589 8.01792 21.5266C8.09704 23.4878 8.67356 24.7217 10.3711 26.1418C10.3711 26.1418 5.83848 23.5351 4.30779 22.6498Z" fill="#297AEC"/>
</g>
<defs>
<clipPath id="clip0_286_7429">
<rect y="0.547363" width="32" height="26.9056" rx="4" fill="white"/>
</clipPath>
</defs>
</svg>
